<?xml version="1.0" encoding="UTF-8" standalone="no"?>
<svg
   xmlns:dc="http://purl.org/dc/elements/1.1/"
   xmlns:cc="http://creativecommons.org/ns#"
   xmlns:rdf="http://www.w3.org/1999/02/22-rdf-syntax-ns#"
   xmlns:svg="http://www.w3.org/2000/svg"
   xmlns="http://www.w3.org/2000/svg"
   xmlns:xlink="http://www.w3.org/1999/xlink"
   xmlns:sodipodi="http://sodipodi.sourceforge.net/DTD/sodipodi-0.dtd"
   xmlns:inkscape="http://www.inkscape.org/namespaces/inkscape"
   preserveAspectRatio="xMinYMin meet"
   width="100%"
   height="100%"
   viewBox="0 0 525.000 393.750"
   version="1.1"
   id="svg2"
   inkscape:version="0.48.2 r9819"
   sodipodi:docname="C:\Users\Tom\Documents\nanoscope\matlab\lib\plot2svg\demo_svg_water.svg">
  <metadata
     id="metadata490">
    <rdf:RDF>
      <cc:Work
         rdf:about="">
        <dc:format>image/svg+xml</dc:format>
        <dc:type
           rdf:resource="http://purl.org/dc/dcmitype/StillImage" />
      </cc:Work>
    </rdf:RDF>
  </metadata>
  <defs
     id="defs488">
    <clipPath
       id="ID000001">
      <rect
         x="68.25"
         y="43.312"
         width="420"
         height="283.5"
         id="rect11" />
    </clipPath>
    <defs
       id="defs93">
      <filter
         color-interpolation-filters="sRGB"
         id="ID000002"
         height="1"
         width="1"
         y="0"
         x="0">
        <feImage
           id="feImage96"
           preserveAspectRatio="xMidYMid slice"
           xlink:href="C:\Users\Tom\Documents\nanoscope\docs\LightSheet\paper\figures\MTFComparison2D.svg"
           result="pic" />
        <feComposite
           id="feComposite98"
           operator="atop"
           in2="SourceGraphic"
           in="pic"
           result="obj" />
        <feGaussianBlur
           id="feGaussianBlur100"
           stdDeviation="5.000"
           in="SourceAlpha"
           result="blur" />
        <feOffset
           id="feOffset102"
           dy="10.000"
           dx="10.000"
           in="blur"
           result="shade" />
        <feComposite
           id="feComposite104"
           operator="over"
           in2="shade"
           in="obj"
           result="front" />
        <feComposite
           id="feComposite106"
           k4="0"
           k3="0"
           k2="0.2"
           k1="0"
           operator="arithmetic"
           in2="pic"
           in="pic"
           result="background" />
        <feComposite
           id="feComposite108"
           operator="over"
           in2="background"
           in="front"
           result="final" />
      </filter>
    </defs>
  </defs>
  <sodipodi:namedview
     pagecolor="#ffffff"
     bordercolor="#666666"
     borderopacity="1"
     objecttolerance="10"
     gridtolerance="10"
     guidetolerance="10"
     inkscape:pageopacity="0"
     inkscape:pageshadow="2"
     inkscape:window-width="640"
     inkscape:window-height="480"
     id="namedview486"
     showgrid="false" />
  <desc
     id="desc4">Matlab Figure Converted by PLOT2SVG written by Juerg Schwizer</desc>
  <polyline
     points="68.250,255.938 488.250,255.938 "
     id="polyline47"
     style="fill:none;stroke:#000000;stroke-width:0.5pt;stroke-dasharray:2, 2"
     transform="translate(-581.84713,168.86943)" />
  <polyline
     points="68.250,185.063 488.250,185.063 "
     id="polyline49"
     style="fill:none;stroke:#000000;stroke-width:0.5pt;stroke-dasharray:2, 2"
     transform="translate(-581.84713,168.86943)" />
  <polyline
     points="68.250,114.188 488.250,114.188 "
     id="polyline51"
     style="fill:none;stroke:#000000;stroke-width:0.5pt;stroke-dasharray:2, 2"
     transform="translate(-581.84713,168.86943)" />
  <polyline
     points="68.250,185.063 68.250,185.063 "
     id="polyline85"
     style="fill:none;stroke:#000000;stroke-width:0.5pt;stroke-dasharray:2, 2"
     transform="translate(-581.84713,168.86943)" />
  <polyline
     points="68.250,114.188 68.250,114.188 "
     id="polyline87"
     style="fill:none;stroke:#000000;stroke-width:0.5pt;stroke-dasharray:2, 2"
     transform="translate(-581.84713,168.86943)" />
  <rect
     x="17.794586"
     y="108.22283"
     width="444"
     height="307.5"
     id="rect111"
     style="fill:none;stroke:none;filter:url(#ID000002)"
     transform="matrix(1,0,0,1.3479882,0,-144.66664)" />
  <polygon
     style="fill:#00008f;fill-opacity:1;stroke:#000000;stroke-width:0.5pt;stroke-opacity:1;stroke-dasharray:none;filter:url(#ID000002)"
     id="polygon114"
     points="94.319,326.813 71.147,326.813 71.147,163.8 94.319,163.8 "
     transform="translate(-581.84713,168.86943)" />
  <polygon
     style="fill:#00008f;fill-opacity:1;stroke:#000000;stroke-width:0.5pt;stroke-opacity:1;stroke-dasharray:none;filter:url(#ID000002)"
     id="polygon116"
     points="123.284,326.813 100.112,326.813 100.112,138.994 123.284,138.994 "
     transform="translate(-581.84713,168.86943)" />
  <polygon
     style="fill:#00008f;fill-opacity:1;stroke:#000000;stroke-width:0.5pt;stroke-opacity:1;stroke-dasharray:none;filter:url(#ID000002)"
     id="polygon118"
     points="152.25,326.813 129.078,326.813 129.078,138.994 152.25,138.994 "
     transform="translate(-581.84713,168.86943)" />
  <polygon
     style="fill:#00008f;fill-opacity:1;stroke:#000000;stroke-width:0.5pt;stroke-opacity:1;stroke-dasharray:none;filter:url(#ID000002)"
     id="polygon120"
     points="181.216,326.813 158.043,326.813 158.043,138.285 181.216,138.285 "
     transform="translate(-581.84713,168.86943)" />
  <polygon
     style="fill:#00008f;fill-opacity:1;stroke:#000000;stroke-width:0.5pt;stroke-opacity:1;stroke-dasharray:none;filter:url(#ID000002)"
     id="polygon122"
     points="210.181,326.813 187.009,326.813 187.009,141.12 210.181,141.12 "
     transform="translate(-581.84713,168.86943)" />
  <polygon
     style="fill:#00008f;fill-opacity:1;stroke:#000000;stroke-width:0.5pt;stroke-opacity:1;stroke-dasharray:none;filter:url(#ID000002)"
     id="polygon124"
     points="239.147,326.813 215.974,326.813 215.974,143.246 239.147,143.246 "
     transform="translate(-581.84713,168.86943)" />
  <polygon
     style="fill:#00008f;fill-opacity:1;stroke:#000000;stroke-width:0.5pt;stroke-opacity:1;stroke-dasharray:none;filter:url(#ID000002)"
     id="polygon126"
     points="268.112,326.813 244.94,326.813 244.94,130.489 268.112,130.489 "
     transform="translate(-581.84713,168.86943)" />
  <polygon
     style="fill:#00008f;fill-opacity:1;stroke:#000000;stroke-width:0.5pt;stroke-opacity:1;stroke-dasharray:none;filter:url(#ID000002)"
     id="polygon128"
     points="297.078,326.813 273.905,326.813 273.905,151.751 297.078,151.751 "
     transform="translate(-581.84713,168.86943)" />
  <polygon
     style="fill:#00008f;fill-opacity:1;stroke:#000000;stroke-width:0.5pt;stroke-opacity:1;stroke-dasharray:none;filter:url(#ID000002)"
     id="polygon130"
     points="326.043,326.813 302.871,326.813 302.871,158.13 326.043,158.13 "
     transform="translate(-581.84713,168.86943)" />
  <polygon
     style="fill:#00008f;fill-opacity:1;stroke:#000000;stroke-width:0.5pt;stroke-opacity:1;stroke-dasharray:none;filter:url(#ID000002)"
     id="polygon132"
     points="355.009,326.813 331.836,326.813 331.836,149.625 355.009,149.625 "
     transform="translate(-581.84713,168.86943)" />
  <polygon
     style="fill:#00008f;fill-opacity:1;stroke:#000000;stroke-width:0.5pt;stroke-opacity:1;stroke-dasharray:none;filter:url(#ID000002)"
     id="polygon134"
     points="383.974,326.813 360.802,326.813 360.802,149.625 383.974,149.625 "
     transform="translate(-581.84713,168.86943)" />
  <polygon
     style="fill:#00008f;fill-opacity:1;stroke:#000000;stroke-width:0.5pt;stroke-opacity:1;stroke-dasharray:none;filter:url(#ID000002)"
     id="polygon136"
     points="412.94,326.813 389.767,326.813 389.767,160.256 412.94,160.256 "
     transform="translate(-581.84713,168.86943)" />
  <polygon
     style="fill:#00008f;fill-opacity:1;stroke:#000000;stroke-width:0.5pt;stroke-opacity:1;stroke-dasharray:none;filter:url(#ID000002)"
     id="polygon138"
     points="441.905,326.813 418.733,326.813 418.733,161.674 441.905,161.674 "
     transform="translate(-581.84713,168.86943)" />
  <polygon
     style="fill:#00008f;fill-opacity:1;stroke:#000000;stroke-width:0.5pt;stroke-opacity:1;stroke-dasharray:none;filter:url(#ID000002)"
     id="polygon140"
     points="470.871,326.813 447.698,326.813 447.698,165.218 470.871,165.218 "
     transform="translate(-581.84713,168.86943)" />
  <polyline
     points="68.250,326.813 488.250,326.813 "
     id="polyline143"
     style="fill:none;stroke:#000000;stroke-width:0.5pt;stroke-dasharray:none"
     transform="translate(-581.84713,168.86943)" />
  <polygon
     style="fill:none;stroke:#000000;stroke-width:0.5pt;stroke-opacity:1;stroke-dasharray:none"
     id="polygon149"
     points="94.319,326.813 71.147,326.813 71.147,163.8 94.319,163.8 "
     transform="translate(-581.84713,168.86943)" />
  <polygon
     style="fill:none;stroke:#000000;stroke-width:0.5pt;stroke-opacity:1;stroke-dasharray:none"
     id="polygon151"
     points="123.284,326.813 100.112,326.813 100.112,138.994 123.284,138.994 "
     transform="translate(-581.84713,168.86943)" />
  <polygon
     style="fill:none;stroke:#000000;stroke-width:0.5pt;stroke-opacity:1;stroke-dasharray:none"
     id="polygon153"
     points="152.25,326.813 129.078,326.813 129.078,138.994 152.25,138.994 "
     transform="translate(-581.84713,168.86943)" />
  <polygon
     style="fill:none;stroke:#000000;stroke-width:0.5pt;stroke-opacity:1;stroke-dasharray:none"
     id="polygon155"
     points="181.216,326.813 158.043,326.813 158.043,138.285 181.216,138.285 "
     transform="translate(-581.84713,168.86943)" />
  <polygon
     style="fill:none;stroke:#000000;stroke-width:0.5pt;stroke-opacity:1;stroke-dasharray:none"
     id="polygon157"
     points="210.181,326.813 187.009,326.813 187.009,141.12 210.181,141.12 "
     transform="translate(-581.84713,168.86943)" />
  <polygon
     style="fill:none;stroke:#000000;stroke-width:0.5pt;stroke-opacity:1;stroke-dasharray:none"
     id="polygon159"
     points="239.147,326.813 215.974,326.813 215.974,143.246 239.147,143.246 "
     transform="translate(-581.84713,168.86943)" />
  <polygon
     style="fill:none;stroke:#000000;stroke-width:0.5pt;stroke-opacity:1;stroke-dasharray:none"
     id="polygon161"
     points="268.112,326.813 244.94,326.813 244.94,130.489 268.112,130.489 "
     transform="translate(-581.84713,168.86943)" />
  <polygon
     style="fill:none;stroke:#000000;stroke-width:0.5pt;stroke-opacity:1;stroke-dasharray:none"
     id="polygon163"
     points="297.078,326.813 273.905,326.813 273.905,151.751 297.078,151.751 "
     transform="translate(-581.84713,168.86943)" />
  <polygon
     style="fill:none;stroke:#000000;stroke-width:0.5pt;stroke-opacity:1;stroke-dasharray:none"
     id="polygon165"
     points="326.043,326.813 302.871,326.813 302.871,158.13 326.043,158.13 "
     transform="translate(-581.84713,168.86943)" />
  <polygon
     style="fill:none;stroke:#000000;stroke-width:0.5pt;stroke-opacity:1;stroke-dasharray:none"
     id="polygon167"
     points="355.009,326.813 331.836,326.813 331.836,149.625 355.009,149.625 "
     transform="translate(-581.84713,168.86943)" />
  <polygon
     style="fill:none;stroke:#000000;stroke-width:0.5pt;stroke-opacity:1;stroke-dasharray:none"
     id="polygon169"
     points="383.974,326.813 360.802,326.813 360.802,149.625 383.974,149.625 "
     transform="translate(-581.84713,168.86943)" />
  <polygon
     style="fill:none;stroke:#000000;stroke-width:0.5pt;stroke-opacity:1;stroke-dasharray:none"
     id="polygon171"
     points="412.94,326.813 389.767,326.813 389.767,160.256 412.94,160.256 "
     transform="translate(-581.84713,168.86943)" />
  <polygon
     style="fill:none;stroke:#000000;stroke-width:0.5pt;stroke-opacity:1;stroke-dasharray:none"
     id="polygon173"
     points="441.905,326.813 418.733,326.813 418.733,161.674 441.905,161.674 "
     transform="translate(-581.84713,168.86943)" />
  <polygon
     style="fill:none;stroke:#000000;stroke-width:0.5pt;stroke-opacity:1;stroke-dasharray:none"
     id="polygon175"
     points="470.871,326.813 447.698,326.813 447.698,165.218 470.871,165.218 "
     transform="translate(-581.84713,168.86943)" />
  <text
     x="339.75641"
     y="505.86414"
     font-size="15pt"
     font-weight="bold"
     id="text182"
     style="font-size:18.75px;font-weight:bold;text-anchor:start;fill:#000000;font-family:Arial"
     transform="matrix(0,1,-1,0,0,0)">230</text>
  <text
     x="314.95041"
     y="476.89914"
     font-size="15pt"
     font-weight="bold"
     id="text189"
     style="font-size:18.75px;font-weight:bold;text-anchor:start;fill:#000000;font-family:Arial"
     transform="matrix(0,1,-1,0,0,0)">265</text>
  <text
     x="314.95041"
     y="447.93314"
     font-size="15pt"
     font-weight="bold"
     id="text196"
     style="font-size:18.75px;font-weight:bold;text-anchor:start;fill:#000000;font-family:Arial"
     transform="matrix(0,1,-1,0,0,0)">265</text>
  <text
     x="314.24243"
     y="418.96814"
     font-size="15pt"
     font-weight="bold"
     id="text203"
     style="font-size:18.75px;font-weight:bold;text-anchor:start;fill:#000000;font-family:Arial"
     transform="matrix(0,1,-1,0,0,0)">266</text>
  <text
     x="317.07642"
     y="390.00214"
     font-size="15pt"
     font-weight="bold"
     id="text210"
     style="font-size:18.75px;font-weight:bold;text-anchor:start;fill:#000000;font-family:Arial"
     transform="matrix(0,1,-1,0,0,0)">262</text>
  <text
     x="319.20343"
     y="361.03714"
     font-size="15pt"
     font-weight="bold"
     id="text217"
     style="font-size:18.75px;font-weight:bold;text-anchor:start;fill:#000000;font-family:Arial"
     transform="matrix(0,1,-1,0,0,0)">259</text>
  <text
     x="306.44543"
     y="332.07114"
     font-size="15pt"
     font-weight="bold"
     id="text224"
     style="font-size:18.75px;font-weight:bold;text-anchor:start;fill:#000000;font-family:Arial"
     transform="matrix(0,1,-1,0,0,0)">277</text>
  <text
     x="327.70844"
     y="303.10614"
     font-size="15pt"
     font-weight="bold"
     id="text231"
     style="font-size:18.75px;font-weight:bold;text-anchor:start;fill:#000000;font-family:Arial"
     transform="matrix(0,1,-1,0,0,0)">247</text>
  <text
     x="334.08743"
     y="274.14014"
     font-size="15pt"
     font-weight="bold"
     id="text238"
     style="font-size:18.75px;font-weight:bold;text-anchor:start;fill:#000000;font-family:Arial"
     transform="matrix(0,1,-1,0,0,0)">238</text>
  <text
     x="325.58243"
     y="245.17514"
     font-size="15pt"
     font-weight="bold"
     id="text245"
     style="font-size:18.75px;font-weight:bold;text-anchor:start;fill:#000000;font-family:Arial"
     transform="matrix(0,1,-1,0,0,0)">250</text>
  <text
     x="325.58243"
     y="216.20914"
     font-size="15pt"
     font-weight="bold"
     id="text252"
     style="font-size:18.75px;font-weight:bold;text-anchor:start;fill:#000000;font-family:Arial"
     transform="matrix(0,1,-1,0,0,0)">250</text>
  <text
     x="336.21341"
     y="187.24414"
     font-size="15pt"
     font-weight="bold"
     id="text259"
     style="font-size:18.75px;font-weight:bold;text-anchor:start;fill:#000000;font-family:Arial"
     transform="matrix(0,1,-1,0,0,0)">235</text>
  <text
     x="337.63043"
     y="158.27814"
     font-size="15pt"
     font-weight="bold"
     id="text266"
     style="font-size:18.75px;font-weight:bold;text-anchor:start;fill:#000000;font-family:Arial"
     transform="matrix(0,1,-1,0,0,0)">233</text>
  <text
     x="-354.86743"
     y="-560.94116"
     font-size="15pt"
     id="text287"
     style="font-size:18.75px;text-anchor:middle;fill:#000000;font-family:Arial"
     transform="matrix(0,-1,1,0,0,0)">Water consumption [l]</text>
  <polyline
     style="fill:none;stroke:#000000;stroke-width:0.5pt;stroke-dasharray:none"
     id="polyline320"
     points="68.250,326.813 488.250,326.813 "
     transform="translate(-581.84713,168.86943)" />
  <polyline
     style="fill:none;stroke:#000000;stroke-width:0.5pt;stroke-dasharray:none"
     id="polyline438"
     points="68.250,185.063 72.450,185.063 "
     transform="translate(-581.84713,168.86943)" />
  <polyline
     style="fill:none;stroke:#000000;stroke-width:0.5pt;stroke-dasharray:none"
     id="polyline440"
     points="68.250,114.188 72.450,114.188 "
     transform="translate(-581.84713,168.86943)" />
  <polyline
     style="fill:none;stroke:#000000;stroke-width:0.5pt;stroke-dasharray:none"
     id="polyline448"
     points="488.250,114.188 484.050,114.188 "
     transform="translate(-581.84713,168.86943)" />
  <text
     style="font-size:18.75px;text-anchor:end;fill:#000000;font-family:Arial"
     id="text468"
     font-size="15pt"
     y="360.68243"
     x="-521.99713">200</text>
  <text
     style="font-size:18.75px;text-anchor:end;fill:#000000;font-family:Arial"
     id="text474"
     font-size="15pt"
     y="289.80743"
     x="-521.99713">300</text>
  <rect
     transform="matrix(1,0,0,1.3479882,0,-144.66664)"
     style="fill:none;stroke:none;filter:url(#ID000002)"
     id="rect4390"
     height="307.5"
     width="444"
     y="108.22283"
     x="17.794586" />
</svg>
