<?xml version="1.0" encoding="utf-8" standalone="no"?><!DOCTYPE svg PUBLIC "-//W3C//DTD SVG 1.1//EN" "http://www.w3.org/Graphics/SVG/1.1/DTD/svg11.dtd">
<svg preserveAspectRatio="xMinYMin meet" width="100%" height="100%" viewBox="0 0 525.000 393.750"  version="1.1" xmlns="http://www.w3.org/2000/svg" xmlns:xlink="http://www.w3.org/1999/xlink">
  <desc>Matlab Figure Converted by PLOT2SVG written by Juerg Schwizer</desc>
  <g id="topgroup">
  <rect x="0" y="0" width="525.000" height="393.750" fill="#ffffff" stroke="none" />
  <g id ="ID000000">
  <clipPath id="ID000001">
    <rect x="68.250" y="43.312" width="420.000" height="283.500"/>
  </clipPath>
      <polygon fill="#ffffff" fill-opacity="1.00" stroke="none" stroke-width="0.5pt" stroke-opacity="1.00" stroke-dasharray="none" points="68.250,326.813 488.250,326.813 488.250,43.312 68.250,43.312 "/>
      <polygon fill="#ffffff" fill-opacity="1.00" stroke="none" stroke-width="0.5pt" stroke-opacity="1.00" stroke-dasharray="none" points="68.250,43.312 488.250,43.312 488.250,43.312 68.250,43.312 "/>
      <polygon fill="#ffffff" fill-opacity="1.00" stroke="none" stroke-width="0.5pt" stroke-opacity="1.00" stroke-dasharray="none" points="68.250,326.813 68.250,326.813 68.250,43.312 68.250,43.312 "/>
      <polyline fill="none" stroke="#000000" stroke-width="0.5pt" stroke-dasharray="2.0,2.0" points="82.733,326.813 82.733,43.312 "/>
      <polyline fill="none" stroke="#000000" stroke-width="0.5pt" stroke-dasharray="2.0,2.0" points="111.698,326.813 111.698,43.312 "/>
      <polyline fill="none" stroke="#000000" stroke-width="0.5pt" stroke-dasharray="2.0,2.0" points="140.664,326.813 140.664,43.312 "/>
      <polyline fill="none" stroke="#000000" stroke-width="0.5pt" stroke-dasharray="2.0,2.0" points="169.629,326.813 169.629,43.312 "/>
      <polyline fill="none" stroke="#000000" stroke-width="0.5pt" stroke-dasharray="2.0,2.0" points="198.595,326.813 198.595,43.312 "/>
      <polyline fill="none" stroke="#000000" stroke-width="0.5pt" stroke-dasharray="2.0,2.0" points="227.560,326.813 227.560,43.312 "/>
      <polyline fill="none" stroke="#000000" stroke-width="0.5pt" stroke-dasharray="2.0,2.0" points="256.526,326.813 256.526,43.312 "/>
      <polyline fill="none" stroke="#000000" stroke-width="0.5pt" stroke-dasharray="2.0,2.0" points="285.491,326.813 285.491,43.312 "/>
      <polyline fill="none" stroke="#000000" stroke-width="0.5pt" stroke-dasharray="2.0,2.0" points="314.457,326.813 314.457,43.312 "/>
      <polyline fill="none" stroke="#000000" stroke-width="0.5pt" stroke-dasharray="2.0,2.0" points="343.422,326.813 343.422,43.312 "/>
      <polyline fill="none" stroke="#000000" stroke-width="0.5pt" stroke-dasharray="2.0,2.0" points="372.388,326.813 372.388,43.312 "/>
      <polyline fill="none" stroke="#000000" stroke-width="0.5pt" stroke-dasharray="2.0,2.0" points="401.353,326.813 401.353,43.312 "/>
      <polyline fill="none" stroke="#000000" stroke-width="0.5pt" stroke-dasharray="2.0,2.0" points="430.319,326.813 430.319,43.312 "/>
      <polyline fill="none" stroke="#000000" stroke-width="0.5pt" stroke-dasharray="2.0,2.0" points="459.284,326.813 459.284,43.312 "/>
      <polyline fill="none" stroke="#000000" stroke-width="0.5pt" stroke-dasharray="2.0,2.0" points="68.250,255.938 488.250,255.938 "/>
      <polyline fill="none" stroke="#000000" stroke-width="0.5pt" stroke-dasharray="2.0,2.0" points="68.250,185.063 488.250,185.063 "/>
      <polyline fill="none" stroke="#000000" stroke-width="0.5pt" stroke-dasharray="2.0,2.0" points="68.250,114.188 488.250,114.188 "/>
      <polyline fill="none" stroke="#000000" stroke-width="0.5pt" stroke-dasharray="2.0,2.0" points="82.733,43.312 82.733,43.312 "/>
      <polyline fill="none" stroke="#000000" stroke-width="0.5pt" stroke-dasharray="2.0,2.0" points="111.698,43.312 111.698,43.312 "/>
      <polyline fill="none" stroke="#000000" stroke-width="0.5pt" stroke-dasharray="2.0,2.0" points="140.664,43.312 140.664,43.312 "/>
      <polyline fill="none" stroke="#000000" stroke-width="0.5pt" stroke-dasharray="2.0,2.0" points="169.629,43.312 169.629,43.312 "/>
      <polyline fill="none" stroke="#000000" stroke-width="0.5pt" stroke-dasharray="2.0,2.0" points="198.595,43.312 198.595,43.312 "/>
      <polyline fill="none" stroke="#000000" stroke-width="0.5pt" stroke-dasharray="2.0,2.0" points="227.560,43.312 227.560,43.312 "/>
      <polyline fill="none" stroke="#000000" stroke-width="0.5pt" stroke-dasharray="2.0,2.0" points="256.526,43.312 256.526,43.312 "/>
      <polyline fill="none" stroke="#000000" stroke-width="0.5pt" stroke-dasharray="2.0,2.0" points="285.491,43.312 285.491,43.312 "/>
      <polyline fill="none" stroke="#000000" stroke-width="0.5pt" stroke-dasharray="2.0,2.0" points="314.457,43.312 314.457,43.312 "/>
      <polyline fill="none" stroke="#000000" stroke-width="0.5pt" stroke-dasharray="2.0,2.0" points="343.422,43.312 343.422,43.312 "/>
      <polyline fill="none" stroke="#000000" stroke-width="0.5pt" stroke-dasharray="2.0,2.0" points="372.388,43.312 372.388,43.312 "/>
      <polyline fill="none" stroke="#000000" stroke-width="0.5pt" stroke-dasharray="2.0,2.0" points="401.353,43.312 401.353,43.312 "/>
      <polyline fill="none" stroke="#000000" stroke-width="0.5pt" stroke-dasharray="2.0,2.0" points="430.319,43.312 430.319,43.312 "/>
      <polyline fill="none" stroke="#000000" stroke-width="0.5pt" stroke-dasharray="2.0,2.0" points="459.284,43.312 459.284,43.312 "/>
      <polyline fill="none" stroke="#000000" stroke-width="0.5pt" stroke-dasharray="2.0,2.0" points="68.250,43.312 488.250,43.312 "/>
      <polyline fill="none" stroke="#000000" stroke-width="0.5pt" stroke-dasharray="2.0,2.0" points="68.250,255.938 68.250,255.938 "/>
      <polyline fill="none" stroke="#000000" stroke-width="0.5pt" stroke-dasharray="2.0,2.0" points="68.250,185.063 68.250,185.063 "/>
      <polyline fill="none" stroke="#000000" stroke-width="0.5pt" stroke-dasharray="2.0,2.0" points="68.250,114.188 68.250,114.188 "/>
      <polyline fill="none" stroke="#000000" stroke-width="0.5pt" stroke-dasharray="2.0,2.0" points="68.250,326.813 68.250,43.312 "/>
    <g>
<defs>
  <filter x="0.000%" y="0.000%" width="100.000%" height="100.000%" id="ID000002">
  <feImage result="pic" xlink:href="water_stones.jpg" preserveAspectRatio="xMidYMid slice" />
  <feComposite result="obj" in="pic" in2="SourceGraphic" operator="atop" />
  <feGaussianBlur result="blur" in="SourceAlpha" stdDeviation="5.000" />
  <feOffset result="shade" in="blur" dx="10.000" dy="10.000" />
  <feComposite result="front" in="obj" in2="shade" operator="over" />
  <feComposite result="background" in="pic" in2="pic" operator="arithmetic" k1="0.000" k2="0.200" k3="0.000" k4="0.000" />
  <feComposite result="final" in="front" in2="background" operator="over" />
  </filter>
</defs>
<g id="ID000003" clip-path="url(#ID000001)" filter="url(#ID000002)">
<rect x="56.250" y="31.312" width="444.000" height="307.500" fill="none" stroke="none" />
<g id="ID000004" clip-path="url(#ID000001)" >
      <polygon fill="#00008f" fill-opacity="1.00" stroke="#000000" stroke-width="0.5pt" stroke-opacity="1.00" stroke-dasharray="none" points="71.147,326.813 71.147,163.800 94.319,163.800 94.319,326.813 "/>
      <polygon fill="#00008f" fill-opacity="1.00" stroke="#000000" stroke-width="0.5pt" stroke-opacity="1.00" stroke-dasharray="none" points="100.112,326.813 100.112,138.994 123.284,138.994 123.284,326.813 "/>
      <polygon fill="#00008f" fill-opacity="1.00" stroke="#000000" stroke-width="0.5pt" stroke-opacity="1.00" stroke-dasharray="none" points="129.078,326.813 129.078,138.994 152.250,138.994 152.250,326.813 "/>
      <polygon fill="#00008f" fill-opacity="1.00" stroke="#000000" stroke-width="0.5pt" stroke-opacity="1.00" stroke-dasharray="none" points="158.043,326.813 158.043,138.285 181.216,138.285 181.216,326.813 "/>
      <polygon fill="#00008f" fill-opacity="1.00" stroke="#000000" stroke-width="0.5pt" stroke-opacity="1.00" stroke-dasharray="none" points="187.009,326.813 187.009,141.120 210.181,141.120 210.181,326.813 "/>
      <polygon fill="#00008f" fill-opacity="1.00" stroke="#000000" stroke-width="0.5pt" stroke-opacity="1.00" stroke-dasharray="none" points="215.974,326.813 215.974,143.246 239.147,143.246 239.147,326.813 "/>
      <polygon fill="#00008f" fill-opacity="1.00" stroke="#000000" stroke-width="0.5pt" stroke-opacity="1.00" stroke-dasharray="none" points="244.940,326.813 244.940,130.489 268.112,130.489 268.112,326.813 "/>
      <polygon fill="#00008f" fill-opacity="1.00" stroke="#000000" stroke-width="0.5pt" stroke-opacity="1.00" stroke-dasharray="none" points="273.905,326.813 273.905,151.751 297.078,151.751 297.078,326.813 "/>
      <polygon fill="#00008f" fill-opacity="1.00" stroke="#000000" stroke-width="0.5pt" stroke-opacity="1.00" stroke-dasharray="none" points="302.871,326.813 302.871,158.130 326.043,158.130 326.043,326.813 "/>
      <polygon fill="#00008f" fill-opacity="1.00" stroke="#000000" stroke-width="0.5pt" stroke-opacity="1.00" stroke-dasharray="none" points="331.836,326.813 331.836,149.625 355.009,149.625 355.009,326.813 "/>
      <polygon fill="#00008f" fill-opacity="1.00" stroke="#000000" stroke-width="0.5pt" stroke-opacity="1.00" stroke-dasharray="none" points="360.802,326.813 360.802,149.625 383.974,149.625 383.974,326.813 "/>
      <polygon fill="#00008f" fill-opacity="1.00" stroke="#000000" stroke-width="0.5pt" stroke-opacity="1.00" stroke-dasharray="none" points="389.767,326.813 389.767,160.256 412.940,160.256 412.940,326.813 "/>
      <polygon fill="#00008f" fill-opacity="1.00" stroke="#000000" stroke-width="0.5pt" stroke-opacity="1.00" stroke-dasharray="none" points="418.733,326.813 418.733,161.674 441.905,161.674 441.905,326.813 "/>
      <polygon fill="#00008f" fill-opacity="1.00" stroke="#000000" stroke-width="0.5pt" stroke-opacity="1.00" stroke-dasharray="none" points="447.698,326.813 447.698,165.218 470.871,165.218 470.871,326.813 "/>
</g>
</g><g id="ID000005" clip-path="url(#ID000001)" >
      <polyline fill="none" stroke="#000000" stroke-width="0.5pt" stroke-dasharray="none" points="68.250,326.813 488.250,326.813 "/>
<g>
</g>
</g>
<g id="ID000006" clip-path="url(#ID000001)" >
<g id="ID000007" clip-path="url(#ID000001)" >
      <polygon fill="none" fill-opacity="1.00" stroke="#000000" stroke-width="0.5pt" stroke-opacity="1.00" stroke-dasharray="none" points="71.147,326.813 71.147,163.800 94.319,163.800 94.319,326.813 "/>
      <polygon fill="none" fill-opacity="1.00" stroke="#000000" stroke-width="0.5pt" stroke-opacity="1.00" stroke-dasharray="none" points="100.112,326.813 100.112,138.994 123.284,138.994 123.284,326.813 "/>
      <polygon fill="none" fill-opacity="1.00" stroke="#000000" stroke-width="0.5pt" stroke-opacity="1.00" stroke-dasharray="none" points="129.078,326.813 129.078,138.994 152.250,138.994 152.250,326.813 "/>
      <polygon fill="none" fill-opacity="1.00" stroke="#000000" stroke-width="0.5pt" stroke-opacity="1.00" stroke-dasharray="none" points="158.043,326.813 158.043,138.285 181.216,138.285 181.216,326.813 "/>
      <polygon fill="none" fill-opacity="1.00" stroke="#000000" stroke-width="0.5pt" stroke-opacity="1.00" stroke-dasharray="none" points="187.009,326.813 187.009,141.120 210.181,141.120 210.181,326.813 "/>
      <polygon fill="none" fill-opacity="1.00" stroke="#000000" stroke-width="0.5pt" stroke-opacity="1.00" stroke-dasharray="none" points="215.974,326.813 215.974,143.246 239.147,143.246 239.147,326.813 "/>
      <polygon fill="none" fill-opacity="1.00" stroke="#000000" stroke-width="0.5pt" stroke-opacity="1.00" stroke-dasharray="none" points="244.940,326.813 244.940,130.489 268.112,130.489 268.112,326.813 "/>
      <polygon fill="none" fill-opacity="1.00" stroke="#000000" stroke-width="0.5pt" stroke-opacity="1.00" stroke-dasharray="none" points="273.905,326.813 273.905,151.751 297.078,151.751 297.078,326.813 "/>
      <polygon fill="none" fill-opacity="1.00" stroke="#000000" stroke-width="0.5pt" stroke-opacity="1.00" stroke-dasharray="none" points="302.871,326.813 302.871,158.130 326.043,158.130 326.043,326.813 "/>
      <polygon fill="none" fill-opacity="1.00" stroke="#000000" stroke-width="0.5pt" stroke-opacity="1.00" stroke-dasharray="none" points="331.836,326.813 331.836,149.625 355.009,149.625 355.009,326.813 "/>
      <polygon fill="none" fill-opacity="1.00" stroke="#000000" stroke-width="0.5pt" stroke-opacity="1.00" stroke-dasharray="none" points="360.802,326.813 360.802,149.625 383.974,149.625 383.974,326.813 "/>
      <polygon fill="none" fill-opacity="1.00" stroke="#000000" stroke-width="0.5pt" stroke-opacity="1.00" stroke-dasharray="none" points="389.767,326.813 389.767,160.256 412.940,160.256 412.940,326.813 "/>
      <polygon fill="none" fill-opacity="1.00" stroke="#000000" stroke-width="0.5pt" stroke-opacity="1.00" stroke-dasharray="none" points="418.733,326.813 418.733,161.674 441.905,161.674 441.905,326.813 "/>
      <polygon fill="none" fill-opacity="1.00" stroke="#000000" stroke-width="0.5pt" stroke-opacity="1.00" stroke-dasharray="none" points="447.698,326.813 447.698,165.218 470.871,165.218 470.871,326.813 "/>
</g>
</g><g id="ID000008" >
  <g transform="translate(75.983,170.887)">
    <g transform="rotate(-270.0)">
      <text x="0.000" y="0.000" font-family="Arial" text-anchor="start" font-size="15pt" font-weight="bold" fill="#000000" >230</text>
    </g>
  </g>
</g>
<g id="ID000009" >
  <g transform="translate(104.948,146.081)">
    <g transform="rotate(-270.0)">
      <text x="0.000" y="0.000" font-family="Arial" text-anchor="start" font-size="15pt" font-weight="bold" fill="#000000" >265</text>
    </g>
  </g>
</g>
<g id="ID000010" >
  <g transform="translate(133.914,146.081)">
    <g transform="rotate(-270.0)">
      <text x="0.000" y="0.000" font-family="Arial" text-anchor="start" font-size="15pt" font-weight="bold" fill="#000000" >265</text>
    </g>
  </g>
</g>
<g id="ID000011" >
  <g transform="translate(162.879,145.373)">
    <g transform="rotate(-270.0)">
      <text x="0.000" y="0.000" font-family="Arial" text-anchor="start" font-size="15pt" font-weight="bold" fill="#000000" >266</text>
    </g>
  </g>
</g>
<g id="ID000012" >
  <g transform="translate(191.845,148.207)">
    <g transform="rotate(-270.0)">
      <text x="0.000" y="0.000" font-family="Arial" text-anchor="start" font-size="15pt" font-weight="bold" fill="#000000" >262</text>
    </g>
  </g>
</g>
<g id="ID000013" >
  <g transform="translate(220.810,150.334)">
    <g transform="rotate(-270.0)">
      <text x="0.000" y="0.000" font-family="Arial" text-anchor="start" font-size="15pt" font-weight="bold" fill="#000000" >259</text>
    </g>
  </g>
</g>
<g id="ID000014" >
  <g transform="translate(249.776,137.576)">
    <g transform="rotate(-270.0)">
      <text x="0.000" y="0.000" font-family="Arial" text-anchor="start" font-size="15pt" font-weight="bold" fill="#000000" >277</text>
    </g>
  </g>
</g>
<g id="ID000015" >
  <g transform="translate(278.741,158.839)">
    <g transform="rotate(-270.0)">
      <text x="0.000" y="0.000" font-family="Arial" text-anchor="start" font-size="15pt" font-weight="bold" fill="#000000" >247</text>
    </g>
  </g>
</g>
<g id="ID000016" >
  <g transform="translate(307.707,165.218)">
    <g transform="rotate(-270.0)">
      <text x="0.000" y="0.000" font-family="Arial" text-anchor="start" font-size="15pt" font-weight="bold" fill="#000000" >238</text>
    </g>
  </g>
</g>
<g id="ID000017" >
  <g transform="translate(336.672,156.713)">
    <g transform="rotate(-270.0)">
      <text x="0.000" y="0.000" font-family="Arial" text-anchor="start" font-size="15pt" font-weight="bold" fill="#000000" >250</text>
    </g>
  </g>
</g>
<g id="ID000018" >
  <g transform="translate(365.638,156.713)">
    <g transform="rotate(-270.0)">
      <text x="0.000" y="0.000" font-family="Arial" text-anchor="start" font-size="15pt" font-weight="bold" fill="#000000" >250</text>
    </g>
  </g>
</g>
<g id="ID000019" >
  <g transform="translate(394.603,167.344)">
    <g transform="rotate(-270.0)">
      <text x="0.000" y="0.000" font-family="Arial" text-anchor="start" font-size="15pt" font-weight="bold" fill="#000000" >235</text>
    </g>
  </g>
</g>
<g id="ID000020" >
  <g transform="translate(423.569,168.761)">
    <g transform="rotate(-270.0)">
      <text x="0.000" y="0.000" font-family="Arial" text-anchor="start" font-size="15pt" font-weight="bold" fill="#000000" >233</text>
    </g>
  </g>
</g>
<g id="ID000021" >
  <g transform="translate(452.534,172.305)">
    <g transform="rotate(-270.0)">
      <text x="0.000" y="0.000" font-family="Arial" text-anchor="start" font-size="15pt" font-weight="bold" fill="#000000" >228</text>
    </g>
  </g>
</g>
<g id="ID000022" >
  <g transform="translate(277.781,29.738)">
    <g transform="rotate(-0.0)">
      <text x="0.000" y="0.000" font-family="Arial" text-anchor="middle" font-size="15pt" fill="#000000" >Water Consumption per Person and Year</text>
    </g>
  </g>
</g>
<g id="ID000023" >
  <g transform="translate(20.906,185.998)">
    <g transform="rotate(-90.0)">
      <text x="0.000" y="0.000" font-family="Arial" text-anchor="middle" font-size="15pt" fill="#000000" >Water consumption [l]</text>
    </g>
  </g>
</g>
<g id="ID000024" >
</g>
    </g>
    <g>
      <polyline fill="none" stroke="#000000" stroke-width="0.5pt" stroke-dasharray="none" points="82.733,326.813 82.733,322.613 "/>
      <polyline fill="none" stroke="#000000" stroke-width="0.5pt" stroke-dasharray="none" points="111.698,326.813 111.698,322.613 "/>
      <polyline fill="none" stroke="#000000" stroke-width="0.5pt" stroke-dasharray="none" points="140.664,326.813 140.664,322.613 "/>
      <polyline fill="none" stroke="#000000" stroke-width="0.5pt" stroke-dasharray="none" points="169.629,326.813 169.629,322.613 "/>
      <polyline fill="none" stroke="#000000" stroke-width="0.5pt" stroke-dasharray="none" points="198.595,326.813 198.595,322.613 "/>
      <polyline fill="none" stroke="#000000" stroke-width="0.5pt" stroke-dasharray="none" points="227.560,326.813 227.560,322.613 "/>
      <polyline fill="none" stroke="#000000" stroke-width="0.5pt" stroke-dasharray="none" points="256.526,326.813 256.526,322.613 "/>
      <polyline fill="none" stroke="#000000" stroke-width="0.5pt" stroke-dasharray="none" points="285.491,326.813 285.491,322.613 "/>
      <polyline fill="none" stroke="#000000" stroke-width="0.5pt" stroke-dasharray="none" points="314.457,326.813 314.457,322.613 "/>
      <polyline fill="none" stroke="#000000" stroke-width="0.5pt" stroke-dasharray="none" points="343.422,326.813 343.422,322.613 "/>
      <polyline fill="none" stroke="#000000" stroke-width="0.5pt" stroke-dasharray="none" points="372.388,326.813 372.388,322.613 "/>
      <polyline fill="none" stroke="#000000" stroke-width="0.5pt" stroke-dasharray="none" points="401.353,326.813 401.353,322.613 "/>
      <polyline fill="none" stroke="#000000" stroke-width="0.5pt" stroke-dasharray="none" points="430.319,326.813 430.319,322.613 "/>
      <polyline fill="none" stroke="#000000" stroke-width="0.5pt" stroke-dasharray="none" points="459.284,326.813 459.284,322.613 "/>
      <polyline fill="none" stroke="#000000" stroke-width="0.5pt" stroke-dasharray="none" points="68.250,326.813 488.250,326.813 "/>
      <polyline fill="none" stroke="#000000" stroke-width="0.5pt" stroke-dasharray="none" points="82.733,43.312 82.733,47.512 "/>
      <polyline fill="none" stroke="#000000" stroke-width="0.5pt" stroke-dasharray="none" points="111.698,43.312 111.698,47.512 "/>
      <polyline fill="none" stroke="#000000" stroke-width="0.5pt" stroke-dasharray="none" points="140.664,43.312 140.664,47.512 "/>
      <polyline fill="none" stroke="#000000" stroke-width="0.5pt" stroke-dasharray="none" points="169.629,43.312 169.629,47.512 "/>
      <polyline fill="none" stroke="#000000" stroke-width="0.5pt" stroke-dasharray="none" points="198.595,43.312 198.595,47.512 "/>
      <polyline fill="none" stroke="#000000" stroke-width="0.5pt" stroke-dasharray="none" points="227.560,43.312 227.560,47.512 "/>
      <polyline fill="none" stroke="#000000" stroke-width="0.5pt" stroke-dasharray="none" points="256.526,43.312 256.526,47.512 "/>
      <polyline fill="none" stroke="#000000" stroke-width="0.5pt" stroke-dasharray="none" points="285.491,43.312 285.491,47.512 "/>
      <polyline fill="none" stroke="#000000" stroke-width="0.5pt" stroke-dasharray="none" points="314.457,43.312 314.457,47.512 "/>
      <polyline fill="none" stroke="#000000" stroke-width="0.5pt" stroke-dasharray="none" points="343.422,43.312 343.422,47.512 "/>
      <polyline fill="none" stroke="#000000" stroke-width="0.5pt" stroke-dasharray="none" points="372.388,43.312 372.388,47.512 "/>
      <polyline fill="none" stroke="#000000" stroke-width="0.5pt" stroke-dasharray="none" points="401.353,43.312 401.353,47.512 "/>
      <polyline fill="none" stroke="#000000" stroke-width="0.5pt" stroke-dasharray="none" points="430.319,43.312 430.319,47.512 "/>
      <polyline fill="none" stroke="#000000" stroke-width="0.5pt" stroke-dasharray="none" points="459.284,43.312 459.284,47.512 "/>
      <polyline fill="none" stroke="#000000" stroke-width="0.5pt" stroke-dasharray="none" points="68.250,43.312 488.250,43.312 "/>
  <g transform="translate(65.033,332.483)">
    <g transform="rotate(90.0)">
      <text x="0.000" y="0.000" font-family="Arial" text-anchor="start" font-size="15pt" fill="#000000" >1980</text>
    </g>
  </g>
  <g transform="translate(93.998,332.483)">
    <g transform="rotate(90.0)">
      <text x="0.000" y="0.000" font-family="Arial" text-anchor="start" font-size="15pt" fill="#000000" >1982</text>
    </g>
  </g>
  <g transform="translate(122.964,332.483)">
    <g transform="rotate(90.0)">
      <text x="0.000" y="0.000" font-family="Arial" text-anchor="start" font-size="15pt" fill="#000000" >1984</text>
    </g>
  </g>
  <g transform="translate(151.929,332.483)">
    <g transform="rotate(90.0)">
      <text x="0.000" y="0.000" font-family="Arial" text-anchor="start" font-size="15pt" fill="#000000" >1986</text>
    </g>
  </g>
  <g transform="translate(180.895,332.483)">
    <g transform="rotate(90.0)">
      <text x="0.000" y="0.000" font-family="Arial" text-anchor="start" font-size="15pt" fill="#000000" >1988</text>
    </g>
  </g>
  <g transform="translate(209.860,332.483)">
    <g transform="rotate(90.0)">
      <text x="0.000" y="0.000" font-family="Arial" text-anchor="start" font-size="15pt" fill="#000000" >1990</text>
    </g>
  </g>
  <g transform="translate(238.826,332.483)">
    <g transform="rotate(90.0)">
      <text x="0.000" y="0.000" font-family="Arial" text-anchor="start" font-size="15pt" fill="#000000" >1992</text>
    </g>
  </g>
  <g transform="translate(267.791,332.483)">
    <g transform="rotate(90.0)">
      <text x="0.000" y="0.000" font-family="Arial" text-anchor="start" font-size="15pt" fill="#000000" >1994</text>
    </g>
  </g>
  <g transform="translate(296.757,332.483)">
    <g transform="rotate(90.0)">
      <text x="0.000" y="0.000" font-family="Arial" text-anchor="start" font-size="15pt" fill="#000000" >1996</text>
    </g>
  </g>
  <g transform="translate(325.722,332.483)">
    <g transform="rotate(90.0)">
      <text x="0.000" y="0.000" font-family="Arial" text-anchor="start" font-size="15pt" fill="#000000" >1998</text>
    </g>
  </g>
  <g transform="translate(354.688,332.483)">
    <g transform="rotate(90.0)">
      <text x="0.000" y="0.000" font-family="Arial" text-anchor="start" font-size="15pt" fill="#000000" >2000</text>
    </g>
  </g>
  <g transform="translate(383.653,332.483)">
    <g transform="rotate(90.0)">
      <text x="0.000" y="0.000" font-family="Arial" text-anchor="start" font-size="15pt" fill="#000000" >2002</text>
    </g>
  </g>
  <g transform="translate(412.619,332.483)">
    <g transform="rotate(90.0)">
      <text x="0.000" y="0.000" font-family="Arial" text-anchor="start" font-size="15pt" fill="#000000" >2004</text>
    </g>
  </g>
  <g transform="translate(441.584,332.483)">
    <g transform="rotate(90.0)">
      <text x="0.000" y="0.000" font-family="Arial" text-anchor="start" font-size="15pt" fill="#000000" >2006</text>
    </g>
  </g>
      <polyline fill="none" stroke="#000000" stroke-width="0.5pt" stroke-dasharray="none" points="68.250,255.938 72.450,255.938 "/>
      <polyline fill="none" stroke="#000000" stroke-width="0.5pt" stroke-dasharray="none" points="68.250,185.063 72.450,185.063 "/>
      <polyline fill="none" stroke="#000000" stroke-width="0.5pt" stroke-dasharray="none" points="68.250,114.188 72.450,114.188 "/>
      <polyline fill="none" stroke="#000000" stroke-width="0.5pt" stroke-dasharray="none" points="68.250,326.813 68.250,43.312 "/>
      <polyline fill="none" stroke="#000000" stroke-width="0.5pt" stroke-dasharray="none" points="488.250,255.938 484.050,255.938 "/>
      <polyline fill="none" stroke="#000000" stroke-width="0.5pt" stroke-dasharray="none" points="488.250,185.063 484.050,185.063 "/>
      <polyline fill="none" stroke="#000000" stroke-width="0.5pt" stroke-dasharray="none" points="488.250,114.188 484.050,114.188 "/>
      <polyline fill="none" stroke="#000000" stroke-width="0.5pt" stroke-dasharray="none" points="488.250,326.813 488.250,43.312 "/>
  <g transform="translate(59.850,333.563)">
    <g transform="rotate(-0.0)">
      <text x="0.000" y="0.000" font-family="Arial" text-anchor="end" font-size="15pt" fill="#000000" >0</text>
    </g>
  </g>
  <g transform="translate(59.850,262.688)">
    <g transform="rotate(-0.0)">
      <text x="0.000" y="0.000" font-family="Arial" text-anchor="end" font-size="15pt" fill="#000000" >100</text>
    </g>
  </g>
  <g transform="translate(59.850,191.813)">
    <g transform="rotate(-0.0)">
      <text x="0.000" y="0.000" font-family="Arial" text-anchor="end" font-size="15pt" fill="#000000" >200</text>
    </g>
  </g>
  <g transform="translate(59.850,120.938)">
    <g transform="rotate(-0.0)">
      <text x="0.000" y="0.000" font-family="Arial" text-anchor="end" font-size="15pt" fill="#000000" >300</text>
    </g>
  </g>
  <g transform="translate(59.850,50.063)">
    <g transform="rotate(-0.0)">
      <text x="0.000" y="0.000" font-family="Arial" text-anchor="end" font-size="15pt" fill="#000000" >400</text>
    </g>
  </g>
      <polyline fill="none" stroke="#000000" stroke-width="0.5pt" stroke-dasharray="none" points="68.250,326.813 68.250,323.978 "/>
      <polyline fill="none" stroke="#000000" stroke-width="0.5pt" stroke-dasharray="none" points="68.250,326.813 68.250,326.813 "/>
    </g>
  </g>
  </g>
</svg>
